<?xml version="1.0" encoding="UTF-8"?>
<svg xmlns="http://www.w3.org/2000/svg" xmlns:xlink="http://www.w3.org/1999/xlink" width="200pt" height="113pt" viewBox="0 0 200 113" version="1.1">
<g id="surface1">
<path style=" stroke:none;fill-rule:evenodd;fill:rgb(56.078431%,68.627451%,28.627451%);fill-opacity:1;" d="M 5.332031 5.371094 C 5.488281 5.527344 5.507812 10.40625 5.507812 55.367188 C 5.511719 107.53125 5.492188 105.828125 6.019531 106.242188 C 6.210938 106.394531 6.285156 106.546875 6.253906 106.730469 C 6.230469 106.875 6.257812 107.082031 6.3125 107.191406 C 6.378906 107.320312 6.375 107.390625 6.300781 107.390625 C 6.234375 107.390625 6.183594 107.492188 6.183594 107.613281 C 6.183594 107.839844 6.257812 107.839844 39.890625 107.839844 C 70.195312 107.839844 73.597656 107.824219 73.597656 107.667969 C 73.597656 107.570312 73.535156 107.515625 73.453125 107.550781 C 73.371094 107.578125 73.277344 107.554688 73.242188 107.496094 C 73.203125 107.4375 73.222656 107.390625 73.277344 107.390625 C 73.335938 107.390625 73.382812 107.265625 73.382812 107.117188 C 73.382812 106.914062 73.335938 106.855469 73.199219 106.898438 C 73.054688 106.945312 73.054688 106.929688 73.214844 106.828125 C 73.324219 106.757812 73.410156 106.625 73.410156 106.535156 C 73.410156 106.445312 73.484375 106.371094 73.574219 106.371094 C 73.777344 106.371094 74.121094 105.898438 73.980469 105.8125 C 73.648438 105.605469 73.625 104.953125 73.632812 96.144531 C 73.640625 90.867188 73.6875 87.058594 73.75 86.835938 C 73.988281 85.996094 73.472656 85.664062 72.613281 86.109375 C 72.316406 86.265625 69.796875 86.28125 48.960938 86.265625 C 23.667969 86.25 24.96875 86.28125 24.777344 85.675781 C 24.742188 85.558594 24.5625 85.410156 24.382812 85.347656 C 23.535156 85.050781 23.609375 87.832031 23.609375 55.839844 C 23.609375 26.757812 23.621094 25.953125 24.023438 25.519531 C 24.160156 25.371094 27.074219 25.347656 48.710938 25.324219 C 74.546875 25.292969 73.980469 25.304688 73.789062 24.796875 C 73.742188 24.667969 73.664062 20.621094 73.617188 15.808594 C 73.574219 10.996094 73.503906 6.683594 73.464844 6.222656 C 73.410156 5.585938 73.429688 5.367188 73.542969 5.292969 C 73.625 5.242188 58.273438 5.195312 39.425781 5.195312 C 8.394531 5.195312 5.171875 5.210938 5.332031 5.371094 M 109.835938 25.503906 C 109.378906 25.65625 109.371094 25.746094 109.371094 36.363281 C 109.371094 42.65625 109.410156 46.585938 109.476562 46.703125 C 109.578125 46.886719 110.175781 46.898438 118.554688 46.878906 C 125.71875 46.863281 127.546875 46.886719 127.617188 47 C 127.671875 47.082031 127.699219 42.546875 127.683594 36.925781 C 127.667969 30.558594 127.613281 26.640625 127.546875 26.535156 C 127.488281 26.445312 127.421875 26.269531 127.402344 26.148438 C 127.300781 25.488281 127.804688 25.527344 118.476562 25.492188 C 113.785156 25.476562 109.898438 25.480469 109.835938 25.503906 M 109.199219 64.902344 C 109.34375 66.449219 109.410156 83.09375 109.273438 83.5625 C 109.050781 84.324219 109.105469 84.910156 109.429688 85.238281 L 109.730469 85.539062 L 117.898438 85.574219 C 126.347656 85.613281 127.039062 85.578125 127.039062 85.144531 C 127.039062 85.089844 127.191406 84.894531 127.375 84.707031 L 127.714844 84.371094 L 127.683594 74.167969 L 127.65625 63.96875 L 118.382812 63.941406 L 109.105469 63.914062 L 109.199219 64.902344 M 120.554688 84.4375 C 118.933594 84.457031 116.253906 84.457031 114.59375 84.4375 C 112.9375 84.421875 114.261719 84.40625 117.539062 84.40625 C 120.816406 84.40625 122.171875 84.421875 120.554688 84.4375 M 72.8125 106.542969 C 72.8125 106.636719 72.765625 106.710938 72.707031 106.710938 C 72.648438 106.710938 72.632812 106.789062 72.667969 106.886719 C 72.707031 106.988281 72.6875 107.03125 72.621094 106.992188 C 72.5625 106.953125 72.480469 107.003906 72.445312 107.101562 C 72.382812 107.257812 69.269531 107.277344 40.117188 107.277344 C 18.636719 107.277344 7.878906 107.238281 7.925781 107.164062 C 7.964844 107.101562 7.929688 107.039062 7.847656 107.023438 C 7.765625 107.007812 22.246094 106.96875 40.023438 106.9375 L 72.34375 106.878906 L 40.101562 106.851562 C 16.476562 106.832031 7.878906 106.792969 7.933594 106.699219 C 7.976562 106.628906 7.941406 106.527344 7.855469 106.476562 C 7.765625 106.417969 21.667969 106.375 40.257812 106.375 C 69.121094 106.375 72.8125 106.390625 72.8125 106.542969 M 72.535156 107.53125 C 72.441406 107.644531 65.886719 107.660156 40.171875 107.613281 L 7.925781 107.558594 L 40.136719 107.5 C 57.851562 107.46875 72.414062 107.433594 72.5 107.417969 C 72.609375 107.398438 72.621094 107.429688 72.535156 107.53125 M 7.054688 107.691406 C 6.945312 107.722656 6.769531 107.722656 6.660156 107.691406 C 6.554688 107.664062 6.640625 107.640625 6.859375 107.640625 C 7.074219 107.640625 7.164062 107.664062 7.054688 107.691406 M 89.066406 107.8125 C 95.914062 107.828125 107.121094 107.828125 113.96875 107.8125 C 120.816406 107.796875 115.214844 107.785156 101.515625 107.785156 C 87.820312 107.785156 82.21875 107.796875 89.066406 107.8125 "/>
<path style=" stroke:none;fill-rule:evenodd;fill:rgb(47.058824%,44.313725%,41.176471%);fill-opacity:1;" d="M 73.542969 5.292969 C 73.429688 5.367188 73.410156 5.585938 73.464844 6.222656 C 73.503906 6.683594 73.558594 10.917969 73.585938 15.640625 C 73.632812 24.332031 73.671875 25.070312 74.050781 25.070312 C 74.277344 25.070312 74.875 25.644531 74.875 25.859375 C 74.875 26.300781 75.261719 26.464844 75.84375 26.265625 C 76.75 25.957031 88.476562 25.996094 89.125 26.3125 C 89.589844 26.535156 90.070312 26.613281 90.027344 26.453125 C 89.847656 25.785156 90.867188 25.003906 91.773438 25.117188 C 92.234375 25.175781 104.957031 25.1875 108.671875 25.136719 C 109.289062 25.128906 109.527344 25.171875 109.691406 25.320312 C 109.933594 25.542969 126.558594 25.621094 127.601562 25.40625 C 128.546875 25.210938 172.910156 25.265625 174.03125 25.464844 C 174.554688 25.558594 174.996094 25.632812 175.007812 25.632812 C 175.019531 25.632812 175.007812 25.734375 174.980469 25.859375 C 174.953125 25.984375 174.90625 26.195312 174.875 26.332031 C 174.847656 26.46875 174.757812 26.644531 174.679688 26.722656 C 174.417969 26.988281 174.53125 84.464844 174.792969 84.464844 C 175.292969 84.464844 175.539062 85.675781 175.140625 86.160156 L 174.90625 86.441406 L 151.335938 86.5 C 125.667969 86.558594 127.464844 86.605469 126.847656 85.902344 L 126.53125 85.539062 L 118.125 85.539062 C 110.222656 85.539062 109.71875 85.550781 109.660156 85.738281 C 109.625 85.84375 109.542969 85.933594 109.476562 85.933594 C 109.410156 85.933594 109.296875 86.015625 109.222656 86.117188 C 108.988281 86.441406 107.183594 86.503906 99.453125 86.472656 L 92.019531 86.441406 L 91.429688 86.160156 C 91.101562 86.003906 90.835938 85.808594 90.835938 85.726562 C 90.835938 85.148438 90.03125 84.820312 89.09375 85.015625 C 88.347656 85.171875 76.140625 85.140625 75.472656 84.980469 C 75.167969 84.90625 75.078125 84.941406 74.855469 85.203125 C 74.710938 85.371094 74.429688 85.695312 74.234375 85.917969 C 73.644531 86.59375 73.644531 86.601562 73.632812 96.164062 C 73.625 105.859375 73.617188 105.726562 74.238281 105.914062 C 74.617188 106.03125 191.839844 105.957031 192.617188 105.839844 C 192.851562 105.804688 193.105469 105.714844 193.179688 105.640625 C 193.253906 105.566406 193.492188 105.507812 193.714844 105.507812 C 193.933594 105.507812 194.175781 105.46875 194.246094 105.425781 C 194.324219 105.378906 194.410156 105.421875 194.453125 105.527344 C 194.507812 105.675781 194.542969 105.683594 194.617188 105.5625 C 194.683594 105.460938 194.714844 105.511719 194.714844 105.722656 C 194.714844 105.894531 194.765625 106.035156 194.828125 106.035156 C 194.902344 106.035156 194.933594 89.21875 194.914062 55.644531 L 194.886719 5.25 L 134.289062 5.222656 C 100.960938 5.210938 73.625 5.242188 73.542969 5.292969 M 139.835938 27.074219 C 145.976562 27.089844 155.992188 27.089844 162.09375 27.074219 C 168.195312 27.058594 163.171875 27.042969 150.925781 27.042969 C 138.683594 27.042969 133.691406 27.058594 139.835938 27.074219 M 89.636719 45.628906 C 89.503906 45.679688 89.363281 45.824219 89.320312 45.953125 C 89.28125 46.082031 89.199219 46.160156 89.144531 46.125 C 88.957031 46.007812 89.035156 46.214844 89.234375 46.367188 C 89.742188 46.753906 90.257812 46.433594 90.023438 45.878906 C 89.90625 45.59375 89.839844 45.554688 89.636719 45.628906 M 75.175781 45.976562 C 75.085938 46.320312 75.222656 46.441406 75.59375 46.347656 L 75.898438 46.269531 L 75.636719 46.09375 C 75.496094 45.996094 75.347656 45.871094 75.308594 45.816406 C 75.273438 45.761719 75.210938 45.832031 75.175781 45.976562 M 92.480469 47.265625 C 92.375 47.542969 92.398438 47.570312 92.578125 47.386719 C 92.769531 47.195312 92.796875 47.089844 92.648438 47.089844 C 92.59375 47.089844 92.515625 47.167969 92.480469 47.265625 M 74.648438 64.078125 C 74.648438 64.167969 74.691406 64.265625 74.742188 64.296875 C 74.796875 64.332031 74.847656 64.644531 74.859375 64.996094 C 74.882812 65.703125 75.152344 66.195312 75.4375 66.058594 C 75.53125 66.015625 75.765625 65.894531 75.960938 65.792969 C 76.472656 65.523438 88.59375 65.507812 88.8125 65.777344 C 88.890625 65.871094 89.042969 65.945312 89.152344 65.945312 C 89.261719 65.945312 89.382812 66.023438 89.417969 66.117188 C 89.726562 66.929688 90.359375 65.84375 90.382812 64.457031 C 90.386719 64.160156 90.445312 64.027344 90.585938 63.992188 C 90.691406 63.964844 87.152344 63.933594 82.714844 63.925781 C 75.761719 63.914062 74.648438 63.9375 74.648438 64.078125 M 194.835938 106.515625 C 194.816406 106.621094 194.792969 106.75 194.785156 106.796875 C 194.777344 106.84375 194.722656 106.953125 194.667969 107.039062 C 194.597656 107.152344 194.609375 107.171875 194.707031 107.113281 C 194.816406 107.042969 194.816406 107.074219 194.707031 107.246094 C 194.632812 107.367188 194.472656 107.53125 194.351562 107.605469 C 194.175781 107.714844 194.148438 107.714844 194.214844 107.605469 C 194.277344 107.507812 194.253906 107.496094 194.144531 107.566406 C 194.054688 107.621094 193.886719 107.679688 193.765625 107.699219 C 193.316406 107.769531 193.464844 107.839844 194.066406 107.839844 C 194.84375 107.839844 194.964844 107.710938 194.910156 106.917969 C 194.890625 106.585938 194.855469 106.40625 194.835938 106.515625 M 74.984375 107.726562 C 74.984375 107.792969 75.34375 107.839844 75.828125 107.839844 C 76.316406 107.839844 76.671875 107.792969 76.671875 107.726562 C 76.671875 107.664062 76.316406 107.613281 75.828125 107.613281 C 75.34375 107.613281 74.984375 107.664062 74.984375 107.726562 M 126.363281 107.730469 C 126.363281 107.792969 126.695312 107.839844 127.113281 107.839844 C 127.523438 107.839844 127.839844 107.824219 127.816406 107.800781 C 127.691406 107.695312 126.363281 107.628906 126.363281 107.730469 M 73.777344 107.804688 C 73.886719 107.835938 74.0625 107.835938 74.171875 107.804688 C 74.277344 107.777344 74.191406 107.753906 73.972656 107.753906 C 73.757812 107.753906 73.667969 107.777344 73.777344 107.804688 "/>
<path style=" stroke:none;fill-rule:evenodd;fill:rgb(58.039216%,51.764706%,54.901961%);fill-opacity:1;" d="M 73.523438 25.183594 C 73.375 25.277344 73.375 25.292969 73.523438 25.296875 C 73.617188 25.300781 73.820312 25.40625 73.972656 25.535156 L 74.253906 25.773438 L 74.285156 36.316406 L 74.316406 46.863281 L 74.617188 47.058594 C 75.082031 47.363281 89.804688 47.441406 90.429688 47.144531 L 90.835938 46.949219 L 90.835938 36.816406 C 90.835938 26.3125 90.855469 25.703125 91.160156 25.5625 C 91.261719 25.515625 95.199219 25.464844 99.914062 25.449219 C 104.632812 25.433594 108.539062 25.390625 108.597656 25.351562 C 108.65625 25.316406 108.90625 25.382812 109.15625 25.503906 C 109.511719 25.675781 109.628906 25.691406 109.722656 25.578125 C 109.949219 25.304688 109.523438 25.125 108.667969 25.136719 C 104.972656 25.1875 92.230469 25.175781 91.773438 25.117188 C 90.867188 25.003906 89.847656 25.785156 90.027344 26.453125 C 90.070312 26.613281 89.589844 26.535156 89.125 26.3125 C 88.476562 25.996094 76.75 25.957031 75.84375 26.265625 C 75.261719 26.464844 74.875 26.300781 74.875 25.859375 C 74.875 25.378906 73.945312 24.910156 73.523438 25.183594 M 128.339844 25.316406 C 127.28125 25.421875 126.976562 25.503906 127.121094 25.648438 C 127.203125 25.730469 127.308594 25.730469 127.46875 25.644531 C 127.632812 25.554688 134.355469 25.515625 150.890625 25.507812 C 164.695312 25.5 173.882812 25.457031 173.582031 25.394531 C 172.988281 25.277344 129.488281 25.199219 128.339844 25.316406 M 174.574219 26.152344 C 174.613281 26.773438 174.761719 26.859375 174.875 26.332031 C 174.90625 26.195312 174.953125 25.984375 174.980469 25.859375 C 175.007812 25.734375 174.984375 25.632812 174.933594 25.632812 C 174.878906 25.632812 174.769531 25.605469 174.6875 25.574219 C 174.570312 25.53125 174.546875 25.660156 174.574219 26.152344 M 90.039062 46.371094 C 89.878906 46.5625 89.492188 46.5625 89.234375 46.367188 C 89.035156 46.214844 88.957031 46.007812 89.144531 46.125 C 89.199219 46.160156 89.28125 46.082031 89.320312 45.953125 C 89.363281 45.824219 89.503906 45.679688 89.636719 45.628906 C 89.945312 45.515625 90.257812 46.101562 90.039062 46.371094 M 75.636719 46.09375 L 75.898438 46.269531 L 75.59375 46.347656 C 75.222656 46.441406 75.085938 46.320312 75.175781 45.976562 C 75.210938 45.832031 75.273438 45.761719 75.308594 45.816406 C 75.347656 45.871094 75.496094 45.996094 75.636719 46.09375 M 74.195312 64.292969 C 74.410156 65.242188 74.339844 84.464844 74.121094 84.785156 C 73.78125 85.289062 73.535156 85.875 73.644531 85.914062 C 73.703125 85.9375 73.75 86.023438 73.75 86.113281 C 73.75 86.394531 73.941406 86.285156 74.382812 85.746094 C 75.085938 84.898438 75.097656 84.886719 75.480469 84.980469 C 76.140625 85.140625 88.351562 85.171875 89.09375 85.015625 C 90.03125 84.820312 90.835938 85.148438 90.835938 85.726562 C 90.835938 85.808594 91.101562 86.003906 91.429688 86.160156 L 92.019531 86.441406 L 99.453125 86.472656 C 107.183594 86.503906 108.988281 86.441406 109.222656 86.117188 C 109.296875 86.015625 109.40625 85.933594 109.472656 85.933594 C 109.746094 85.933594 109.71875 85.546875 109.425781 85.238281 C 109.257812 85.0625 109.09375 84.917969 109.058594 84.917969 C 108.964844 84.917969 108.601562 85.589844 108.601562 85.757812 C 108.601562 86.007812 107.710938 86.035156 100.113281 86.054688 C 91.488281 86.070312 91.878906 86.109375 91.800781 85.203125 C 91.796875 85.144531 91.679688 85.035156 91.539062 84.96875 C 90.769531 84.582031 90.832031 85.574219 90.839844 74.320312 C 90.84375 67.445312 90.882812 64.164062 90.960938 64.070312 C 91.054688 63.957031 91.011719 63.9375 90.765625 63.984375 C 90.371094 64.054688 90.421875 63.949219 90.355469 64.890625 C 90.277344 65.984375 89.671875 66.777344 89.417969 66.117188 C 89.382812 66.023438 89.261719 65.945312 89.152344 65.945312 C 89.042969 65.945312 88.890625 65.871094 88.8125 65.777344 C 88.59375 65.507812 76.472656 65.523438 75.960938 65.792969 C 75.289062 66.144531 75.277344 66.144531 75.078125 65.890625 C 74.960938 65.742188 74.875 65.402344 74.859375 65.035156 C 74.824219 64.300781 74.675781 63.980469 74.351562 63.9375 C 74.128906 63.90625 74.117188 63.9375 74.195312 64.292969 M 174.597656 84.664062 C 174.601562 84.773438 174.648438 85.089844 174.699219 85.371094 C 174.753906 85.648438 174.785156 85.890625 174.765625 85.910156 C 174.703125 85.972656 127.585938 85.9375 127.480469 85.875 C 127.421875 85.835938 127.375 85.722656 127.371094 85.617188 C 127.367188 85.40625 127.039062 84.910156 127.039062 85.113281 C 127.039062 85.183594 126.9375 85.273438 126.8125 85.3125 C 126.402344 85.441406 126.792969 86.074219 127.5 86.429688 C 127.6875 86.519531 134.003906 86.539062 151.328125 86.5 L 174.90625 86.441406 L 175.140625 86.160156 C 175.414062 85.828125 175.425781 85.238281 175.167969 84.777344 C 174.972656 84.429688 174.589844 84.351562 174.597656 84.664062 M 194.234375 105.425781 C 194.191406 105.46875 193.964844 105.507812 193.734375 105.507812 C 193.503906 105.507812 193.253906 105.566406 193.179688 105.640625 C 192.921875 105.898438 191.84375 105.90625 133.109375 105.941406 C 93.894531 105.964844 74.003906 106.015625 73.949219 106.089844 C 73.796875 106.300781 73.859375 106.371094 74.199219 106.371094 C 74.382812 106.371094 74.53125 106.410156 74.523438 106.457031 C 74.488281 106.683594 74.550781 106.75 74.660156 106.597656 C 74.765625 106.449219 74.773438 106.449219 74.726562 106.597656 C 74.699219 106.691406 74.621094 106.753906 74.550781 106.738281 C 74.480469 106.722656 74.425781 106.816406 74.425781 106.941406 C 74.425781 107.066406 74.347656 107.199219 74.253906 107.238281 C 74.101562 107.292969 74.105469 107.324219 74.28125 107.453125 C 74.460938 107.589844 74.453125 107.597656 74.199219 107.550781 C 73.953125 107.503906 73.949219 107.511719 74.144531 107.601562 C 74.480469 107.757812 193.101562 107.871094 193.761719 107.714844 C 193.886719 107.683594 194.058594 107.617188 194.144531 107.5625 C 194.253906 107.496094 194.277344 107.507812 194.214844 107.605469 C 194.148438 107.714844 194.175781 107.714844 194.351562 107.605469 C 194.472656 107.53125 194.632812 107.367188 194.707031 107.246094 C 194.816406 107.074219 194.816406 107.042969 194.707031 107.113281 C 194.609375 107.171875 194.597656 107.152344 194.664062 107.042969 C 194.71875 106.957031 194.773438 106.808594 194.785156 106.714844 C 194.800781 106.621094 194.84375 106.429688 194.886719 106.289062 C 194.9375 106.128906 194.921875 106.035156 194.839844 106.035156 C 194.773438 106.035156 194.710938 105.894531 194.707031 105.722656 C 194.703125 105.550781 194.671875 105.480469 194.640625 105.558594 C 194.59375 105.671875 194.550781 105.664062 194.449219 105.527344 C 194.375 105.425781 194.28125 105.378906 194.234375 105.425781 M 193.816406 106.488281 C 193.816406 106.554688 193.742188 106.636719 193.648438 106.671875 C 193.554688 106.707031 193.503906 106.773438 193.535156 106.824219 C 193.566406 106.871094 193.445312 106.933594 193.265625 106.960938 C 192.871094 107.019531 192.90625 106.84375 193.339844 106.582031 C 193.710938 106.355469 193.816406 106.335938 193.816406 106.488281 M 194.359375 106.636719 C 194.382812 106.75 194.320312 106.824219 194.207031 106.824219 C 194.105469 106.824219 193.992188 106.925781 193.960938 107.050781 C 193.898438 107.292969 193.742188 107.332031 193.492188 107.171875 C 193.371094 107.097656 193.386719 107.058594 193.574219 107 C 193.707031 106.957031 193.800781 106.863281 193.785156 106.789062 C 193.773438 106.714844 193.828125 106.671875 193.914062 106.6875 C 194.007812 106.707031 194.046875 106.65625 194.007812 106.558594 C 193.964844 106.449219 194.007812 106.40625 194.132812 106.421875 C 194.238281 106.4375 194.339844 106.535156 194.359375 106.636719 M 194.347656 107.089844 C 194.285156 107.269531 194.078125 107.300781 194.078125 107.128906 C 194.078125 107.042969 194.148438 106.976562 194.230469 106.976562 C 194.316406 106.976562 194.367188 107.027344 194.347656 107.089844 "/>
<path style=" stroke:none;fill-rule:evenodd;fill:rgb(72.941176%,80%,57.647059%);fill-opacity:1;" d="M 4.203125 5.46875 C 4.210938 5.636719 4.152344 5.699219 3.984375 5.691406 C 3.746094 5.679688 3.691406 5.90625 3.863281 6.183594 C 3.910156 6.261719 3.894531 6.324219 3.828125 6.324219 C 3.664062 6.324219 3.664062 107.007812 3.824219 107.109375 C 3.886719 107.148438 3.914062 107.214844 3.886719 107.261719 C 3.804688 107.394531 3.996094 107.628906 4.226562 107.671875 C 4.34375 107.691406 4.441406 107.722656 4.441406 107.734375 C 4.441406 107.824219 5.707031 107.78125 5.828125 107.6875 C 5.933594 107.605469 6.003906 107.621094 6.078125 107.734375 C 6.15625 107.859375 6.179688 107.839844 6.179688 107.644531 C 6.183594 107.503906 6.234375 107.390625 6.300781 107.390625 C 6.375 107.390625 6.378906 107.320312 6.3125 107.191406 C 6.257812 107.082031 6.230469 106.875 6.253906 106.730469 C 6.285156 106.546875 6.210938 106.394531 6.019531 106.242188 C 5.492188 105.828125 5.511719 107.53125 5.507812 55.367188 C 5.507812 10.40625 5.488281 5.527344 5.332031 5.371094 C 5.128906 5.167969 4.835938 5.136719 4.835938 5.3125 C 4.835938 5.378906 4.773438 5.394531 4.695312 5.347656 C 4.417969 5.175781 4.191406 5.230469 4.203125 5.46875 M 25.222656 25.378906 C 24.496094 25.402344 24.039062 25.464844 23.972656 25.550781 C 23.625 26 23.609375 27.410156 23.609375 55.839844 C 23.609375 87.832031 23.535156 85.050781 24.382812 85.347656 C 24.5625 85.410156 24.742188 85.558594 24.777344 85.675781 C 24.96875 86.28125 23.667969 86.25 48.960938 86.265625 C 74.523438 86.285156 72.941406 86.324219 72.976562 85.648438 C 73.007812 85.023438 73.023438 84.945312 73.167969 84.773438 C 73.25 84.671875 73.425781 84.578125 73.558594 84.558594 L 73.804688 84.523438 L 73.835938 74.332031 C 73.855469 66.214844 73.835938 64.140625 73.722656 64.136719 C 73.628906 64.136719 73.636719 64.101562 73.75 64.027344 C 73.898438 63.929688 73.898438 63.917969 73.75 63.917969 C 73.574219 63.917969 73.171875 64.136719 73.339844 64.136719 C 73.394531 64.140625 73.375 64.21875 73.296875 64.316406 C 73.214844 64.410156 73.078125 64.460938 72.988281 64.425781 C 72.867188 64.378906 72.839844 64.421875 72.882812 64.589844 C 72.933594 64.792969 72.890625 64.839844 72.664062 64.808594 C 72.492188 64.785156 72.433594 65.09375 72.585938 65.246094 C 72.703125 65.363281 72.714844 65.4375 72.628906 65.492188 C 72.558594 65.535156 72.539062 65.660156 72.585938 65.777344 C 72.640625 65.917969 72.621094 65.957031 72.53125 65.902344 C 72.445312 65.847656 72.398438 65.914062 72.398438 66.101562 C 72.398438 66.304688 72.472656 66.394531 72.652344 66.429688 C 72.871094 66.472656 72.875 66.484375 72.679688 66.496094 C 72.457031 66.511719 72.457031 66.578125 72.488281 74.894531 C 72.507812 79.507812 72.492188 83.546875 72.453125 83.875 L 72.382812 84.464844 L 25.519531 84.464844 L 25.519531 55.796875 C 25.519531 28.582031 25.53125 27.125 25.714844 27.085938 C 25.824219 27.0625 36.398438 27.058594 49.214844 27.074219 L 72.515625 27.101562 L 72.488281 36.1875 C 72.457031 45.195312 72.457031 45.273438 72.679688 45.320312 C 72.878906 45.359375 72.878906 45.367188 72.652344 45.378906 C 72.433594 45.394531 72.398438 45.457031 72.398438 45.847656 C 72.398438 46.234375 72.433594 46.300781 72.652344 46.3125 C 72.828125 46.320312 72.847656 46.339844 72.71875 46.375 C 72.515625 46.429688 72.339844 46.75 72.515625 46.75 C 72.574219 46.75 72.625 46.804688 72.625 46.871094 C 72.625 46.933594 72.574219 46.957031 72.515625 46.921875 C 72.449219 46.878906 72.433594 46.929688 72.476562 47.039062 C 72.535156 47.203125 72.566406 47.195312 72.679688 46.976562 C 72.835938 46.683594 72.9375 46.84375 72.914062 47.332031 C 72.902344 47.582031 72.933594 47.617188 73.089844 47.53125 C 73.21875 47.460938 73.300781 47.472656 73.339844 47.570312 C 73.371094 47.648438 73.398438 47.621094 73.402344 47.503906 C 73.40625 47.394531 73.457031 47.328125 73.515625 47.363281 C 73.570312 47.398438 73.644531 47.363281 73.675781 47.285156 C 73.707031 47.207031 73.734375 47.257812 73.742188 47.398438 C 73.746094 47.539062 73.785156 47.652344 73.832031 47.652344 C 73.878906 47.652344 73.910156 47.84375 73.90625 48.078125 C 73.898438 48.308594 73.949219 48.539062 74.015625 48.582031 C 74.105469 48.640625 74.101562 48.667969 74.003906 48.667969 C 73.925781 48.667969 73.863281 48.71875 73.863281 48.777344 C 73.863281 48.839844 73.945312 48.855469 74.050781 48.816406 C 74.171875 48.769531 74.210938 48.789062 74.15625 48.871094 C 74.109375 48.953125 74.175781 49.019531 74.335938 49.046875 C 74.777344 49.128906 75.210938 49.101562 75.210938 48.996094 C 75.210938 48.941406 75.3125 48.894531 75.433594 48.894531 C 75.558594 48.894531 75.660156 48.945312 75.660156 49.007812 C 75.660156 49.082031 78.078125 49.121094 82.6875 49.121094 C 88.230469 49.121094 89.714844 49.089844 89.714844 48.980469 C 89.714844 48.894531 89.746094 48.882812 89.800781 48.953125 C 89.945312 49.152344 90.695312 49.140625 90.769531 48.9375 C 90.808594 48.835938 90.910156 48.785156 91.007812 48.824219 C 91.097656 48.859375 91.175781 48.84375 91.175781 48.789062 C 91.175781 48.734375 91.113281 48.664062 91.035156 48.632812 C 90.945312 48.59375 90.960938 48.570312 91.078125 48.566406 C 91.328125 48.554688 91.320312 47.804688 91.070312 47.703125 C 90.972656 47.667969 87.074219 47.628906 82.40625 47.617188 L 73.917969 47.597656 L 73.890625 37.066406 C 73.859375 26.394531 73.863281 26.460938 73.492188 26.523438 C 73.441406 26.535156 73.414062 26.476562 73.429688 26.398438 C 73.492188 26.082031 73.289062 25.664062 72.992188 25.511719 C 72.707031 25.363281 29.507812 25.246094 25.222656 25.378906 M 92.578125 25.605469 C 92.285156 25.675781 92.210938 25.8125 92.242188 26.214844 C 92.261719 26.398438 92.246094 26.519531 92.210938 26.484375 C 92.175781 26.453125 92.058594 26.503906 91.945312 26.605469 C 91.835938 26.707031 91.664062 26.757812 91.570312 26.722656 C 91.449219 26.675781 91.359375 26.746094 91.285156 26.941406 C 91.117188 27.386719 91.152344 47.210938 91.324219 47.425781 C 91.472656 47.621094 92.1875 47.703125 92.1875 47.53125 C 92.1875 47.464844 92.238281 47.445312 92.300781 47.484375 C 92.363281 47.523438 92.410156 47.515625 92.402344 47.464844 C 92.359375 47.234375 92.421875 47.089844 92.5625 47.089844 C 92.660156 47.089844 92.710938 46.964844 92.703125 46.75 C 92.699219 46.5625 92.667969 46.410156 92.636719 46.410156 C 92.605469 46.410156 92.566406 46.15625 92.546875 45.847656 C 92.527344 45.5 92.5625 45.28125 92.636719 45.28125 C 92.722656 45.28125 92.746094 42.601562 92.726562 36.203125 L 92.691406 27.121094 L 94.152344 27.042969 C 94.957031 27.003906 98.183594 26.984375 101.320312 27.007812 C 105.058594 27.03125 107.039062 27.007812 107.070312 26.933594 C 107.3125 26.277344 107.355469 27.695312 107.367188 36.996094 C 107.386719 48.167969 107.324219 47.425781 108.238281 47.589844 C 108.761719 47.683594 108.828125 47.726562 108.839844 47.984375 C 108.902344 49.25 107.839844 49.121094 118.28125 49.117188 C 124.425781 49.113281 127.375 49.074219 127.375 48.996094 C 127.375 48.933594 127.425781 48.914062 127.484375 48.949219 C 127.675781 49.070312 127.753906 47.871094 127.613281 46.945312 C 127.605469 46.898438 123.546875 46.867188 118.59375 46.878906 C 110.175781 46.898438 109.578125 46.886719 109.476562 46.703125 C 109.410156 46.585938 109.359375 42.714844 109.347656 36.609375 C 109.332031 27.414062 109.316406 26.683594 109.136719 26.367188 C 109.027344 26.179688 108.9375 25.945312 108.9375 25.839844 C 108.9375 25.683594 108.789062 25.644531 108.066406 25.609375 C 106.777344 25.542969 92.84375 25.542969 92.578125 25.605469 M 127.628906 26.339844 L 127.65625 27.042969 L 128.191406 27.078125 C 128.484375 27.097656 128.722656 27.074219 128.722656 27.023438 C 128.722656 26.972656 138.714844 26.914062 150.925781 26.890625 C 167.039062 26.863281 173.132812 26.886719 173.132812 26.976562 C 173.132812 27.046875 173.328125 27.101562 173.582031 27.101562 C 173.828125 27.101562 174.03125 27.054688 174.03125 27 C 174.03125 26.941406 174.140625 26.925781 174.273438 26.960938 C 174.4375 27.003906 174.488281 26.984375 174.433594 26.894531 C 174.390625 26.820312 174.40625 26.761719 174.472656 26.761719 C 174.542969 26.761719 174.59375 26.519531 174.59375 26.199219 L 174.59375 25.632812 L 127.605469 25.632812 L 127.628906 26.339844 M 72.640625 64.15625 C 72.523438 64.347656 72.523438 64.371094 72.644531 64.296875 C 72.726562 64.246094 72.894531 64.210938 73.019531 64.226562 C 73.171875 64.238281 73.191406 64.226562 73.074219 64.175781 C 72.980469 64.136719 72.878906 64.066406 72.847656 64.015625 C 72.8125 63.964844 72.71875 64.027344 72.640625 64.15625 M 91.386719 64.101562 C 91.214844 64.308594 91.082031 81.027344 91.230469 83.308594 L 91.308594 84.464844 L 91.804688 84.464844 C 92.125 84.464844 92.300781 84.417969 92.300781 84.324219 C 92.300781 84.230469 92.339844 84.242188 92.410156 84.351562 C 92.507812 84.503906 92.519531 84.503906 92.523438 84.351562 C 92.527344 84.207031 92.542969 84.207031 92.628906 84.347656 C 92.691406 84.441406 92.738281 80.921875 92.742188 75.453125 C 92.753906 69.03125 92.722656 66.398438 92.636719 66.398438 C 92.558594 66.398438 92.539062 66.257812 92.585938 66.015625 C 92.625 65.800781 92.601562 65.527344 92.53125 65.390625 C 92.429688 65.207031 92.433594 65.140625 92.546875 65.097656 C 92.789062 65.003906 92.75 64.390625 92.496094 64.324219 C 92.375 64.292969 92.308594 64.214844 92.351562 64.148438 C 92.390625 64.078125 92.34375 63.996094 92.246094 63.957031 C 92.015625 63.867188 91.863281 64.007812 92.058594 64.128906 C 92.171875 64.199219 92.160156 64.238281 92.003906 64.300781 C 91.890625 64.34375 91.835938 64.339844 91.878906 64.296875 C 91.964844 64.210938 91.765625 63.914062 91.625 63.914062 C 91.578125 63.914062 91.46875 64 91.386719 64.101562 M 108.039062 64.019531 C 108.039062 64.074219 107.9375 64.09375 107.816406 64.058594 C 107.652344 64.019531 107.5625 64.078125 107.488281 64.277344 C 107.28125 64.824219 107.328125 83.621094 107.535156 83.832031 C 107.636719 83.933594 107.664062 84.015625 107.597656 84.015625 C 107.53125 84.015625 107.476562 84.117188 107.476562 84.242188 C 107.476562 84.445312 107.550781 84.464844 108.296875 84.464844 L 109.113281 84.464844 L 109.242188 83.816406 C 109.390625 83.066406 109.351562 66.539062 109.199219 64.941406 L 109.105469 63.988281 L 108.570312 63.953125 C 108.277344 63.933594 108.039062 63.964844 108.039062 64.019531 M 114.59375 84.4375 C 116.253906 84.457031 118.933594 84.457031 120.554688 84.4375 C 122.171875 84.421875 120.816406 84.40625 117.539062 84.40625 C 114.261719 84.40625 112.9375 84.421875 114.59375 84.4375 M 7.855469 106.476562 C 7.941406 106.527344 7.976562 106.628906 7.933594 106.699219 C 7.878906 106.792969 16.476562 106.832031 40.101562 106.851562 L 72.34375 106.878906 L 40.023438 106.9375 C 22.246094 106.96875 7.765625 107.007812 7.847656 107.023438 C 7.929688 107.039062 7.964844 107.101562 7.925781 107.164062 C 7.878906 107.238281 18.636719 107.277344 40.117188 107.277344 C 69.269531 107.277344 72.382812 107.257812 72.445312 107.101562 C 72.480469 107.003906 72.5625 106.953125 72.621094 106.992188 C 72.6875 107.03125 72.707031 106.988281 72.667969 106.886719 C 72.632812 106.789062 72.648438 106.710938 72.707031 106.710938 C 72.765625 106.710938 72.8125 106.636719 72.8125 106.542969 C 72.8125 106.390625 69.121094 106.375 40.257812 106.375 C 21.667969 106.375 7.765625 106.417969 7.855469 106.476562 M 40.136719 107.5 L 7.925781 107.558594 L 40.171875 107.613281 C 65.886719 107.660156 72.441406 107.644531 72.535156 107.53125 C 72.621094 107.429688 72.609375 107.398438 72.5 107.417969 C 72.414062 107.433594 57.851562 107.46875 40.136719 107.5 M 6.660156 107.691406 C 6.769531 107.722656 6.945312 107.722656 7.054688 107.691406 C 7.164062 107.664062 7.074219 107.640625 6.859375 107.640625 C 6.640625 107.640625 6.554688 107.664062 6.660156 107.691406 "/>
<path style=" stroke:none;fill-rule:evenodd;fill:rgb(64.313725%,61.176471%,61.176471%);fill-opacity:1;" d="M 4 5.523438 C 3.8125 5.730469 3.8125 5.742188 4 5.710938 C 4.109375 5.695312 4.210938 5.597656 4.222656 5.496094 C 4.257812 5.257812 4.238281 5.257812 4 5.523438 M 72.910156 25.398438 C 72.875 25.457031 72.949219 25.535156 73.074219 25.574219 C 73.292969 25.648438 73.488281 26.101562 73.429688 26.40625 C 73.410156 26.492188 73.441406 26.53125 73.492188 26.5 C 73.847656 26.277344 73.859375 26.566406 73.863281 37.191406 C 73.867188 45.328125 73.898438 47.757812 74 47.695312 C 74.167969 47.589844 90.898438 47.605469 91.066406 47.710938 C 91.261719 47.835938 91.460938 47.582031 91.3125 47.402344 C 91.152344 47.207031 91.125 27.363281 91.285156 26.941406 C 91.359375 26.746094 91.449219 26.675781 91.570312 26.722656 C 91.664062 26.757812 91.835938 26.707031 91.945312 26.605469 C 92.058594 26.503906 92.175781 26.453125 92.210938 26.484375 C 92.246094 26.519531 92.261719 26.398438 92.242188 26.214844 C 92.210938 25.8125 92.285156 25.675781 92.578125 25.601562 C 92.703125 25.570312 92.449219 25.542969 92.019531 25.535156 C 91.585938 25.527344 91.15625 25.570312 91.0625 25.632812 C 90.914062 25.726562 90.890625 27.0625 90.863281 36.34375 L 90.832031 46.953125 L 90.425781 47.144531 C 89.804688 47.441406 75.078125 47.363281 74.617188 47.058594 L 74.316406 46.863281 L 74.285156 36.316406 L 74.253906 25.773438 L 73.972656 25.535156 C 73.6875 25.296875 73.027344 25.210938 72.910156 25.398438 M 108.058594 25.410156 C 107.1875 25.539062 107.210938 25.632812 108.113281 25.632812 L 108.898438 25.632812 L 109.003906 26.046875 C 109.132812 26.574219 109.335938 26.648438 109.425781 26.203125 C 109.464844 26.011719 109.503906 25.820312 109.511719 25.773438 C 109.53125 25.695312 108.835938 25.296875 108.714844 25.3125 C 108.683594 25.320312 108.386719 25.363281 108.058594 25.410156 M 94.171875 25.492188 C 94.140625 25.539062 96.789062 25.578125 100.054688 25.578125 C 103.320312 25.578125 105.96875 25.539062 105.941406 25.492188 C 105.914062 25.445312 103.265625 25.40625 100.054688 25.40625 C 96.847656 25.40625 94.199219 25.445312 94.171875 25.492188 M 127.464844 25.640625 C 127.316406 25.726562 127.292969 25.8125 127.371094 26.019531 C 127.425781 26.167969 127.449219 26.3125 127.417969 26.34375 C 127.386719 26.375 127.414062 26.433594 127.480469 26.476562 C 127.601562 26.550781 127.640625 26.355469 127.605469 25.886719 L 127.585938 25.632812 L 151.058594 25.605469 L 174.535156 25.574219 L 151.097656 25.550781 C 135.640625 25.535156 127.589844 25.566406 127.464844 25.640625 M 157.46875 26.960938 C 160.324219 26.976562 165.027344 26.976562 167.921875 26.960938 C 170.820312 26.941406 168.484375 26.929688 162.730469 26.929688 C 156.980469 26.929688 154.613281 26.941406 157.46875 26.960938 M 97.050781 27.074219 C 98.703125 27.089844 101.410156 27.089844 103.0625 27.074219 C 104.71875 27.054688 103.363281 27.042969 100.054688 27.042969 C 96.746094 27.042969 95.394531 27.054688 97.050781 27.074219 M 72.453125 36.078125 C 72.453125 41.046875 72.46875 43.0625 72.484375 40.558594 C 72.5 38.054688 72.5 33.988281 72.484375 31.523438 C 72.46875 29.0625 72.453125 31.109375 72.453125 36.078125 M 92.546875 45.847656 C 92.589844 46.578125 92.75 46.578125 92.75 45.847656 C 92.75 45.535156 92.695312 45.28125 92.632812 45.28125 C 92.566406 45.28125 92.53125 45.511719 92.546875 45.847656 M 72.402344 46.496094 C 72.402344 46.617188 72.433594 46.644531 72.488281 46.570312 C 72.53125 46.5 72.644531 46.414062 72.738281 46.378906 C 72.851562 46.335938 72.820312 46.3125 72.652344 46.308594 C 72.484375 46.300781 72.402344 46.363281 72.402344 46.496094 M 72.636719 47.101562 C 72.566406 47.304688 72.542969 47.433594 72.585938 47.390625 C 72.628906 47.351562 72.734375 47.375 72.820312 47.449219 C 72.957031 47.5625 72.972656 47.527344 72.925781 47.214844 C 72.84375 46.699219 72.785156 46.679688 72.636719 47.101562 M 92.144531 47.179688 C 92.105469 47.238281 92.148438 47.320312 92.238281 47.355469 C 92.410156 47.421875 92.597656 47.238281 92.480469 47.117188 C 92.441406 47.082031 92.410156 47.121094 92.410156 47.210938 C 92.410156 47.34375 92.390625 47.34375 92.3125 47.21875 C 92.253906 47.125 92.1875 47.109375 92.144531 47.179688 M 73.636719 47.300781 C 73.636719 47.378906 73.585938 47.410156 73.523438 47.371094 C 73.460938 47.332031 73.410156 47.378906 73.410156 47.476562 C 73.410156 47.574219 73.464844 47.652344 73.527344 47.652344 C 73.667969 47.652344 73.804688 47.332031 73.707031 47.234375 C 73.667969 47.195312 73.636719 47.226562 73.636719 47.300781 M 75.210938 49.007812 C 75.210938 49.070312 75.3125 49.121094 75.433594 49.121094 C 75.558594 49.121094 75.660156 49.070312 75.660156 49.007812 C 75.660156 48.945312 75.558594 48.894531 75.433594 48.894531 C 75.3125 48.894531 75.210938 48.945312 75.210938 49.007812 M 72.992188 64.03125 C 72.851562 64.085938 72.738281 64.101562 72.738281 64.066406 C 72.738281 63.761719 72.433594 64.347656 72.421875 64.675781 C 72.410156 64.941406 72.441406 65.042969 72.5 64.949219 C 72.550781 64.867188 72.625 64.804688 72.664062 64.808594 C 72.890625 64.839844 72.933594 64.792969 72.882812 64.589844 C 72.839844 64.421875 72.867188 64.378906 72.988281 64.425781 C 73.078125 64.460938 73.214844 64.410156 73.296875 64.316406 C 73.375 64.21875 73.394531 64.140625 73.339844 64.136719 C 73.289062 64.136719 73.320312 64.085938 73.410156 64.027344 C 73.640625 63.878906 73.359375 63.882812 72.992188 64.03125 M 73.75 64.027344 C 73.636719 64.101562 73.628906 64.136719 73.722656 64.136719 C 73.835938 64.140625 73.855469 66.214844 73.835938 74.332031 L 73.804688 84.523438 L 73.558594 84.558594 C 72.992188 84.640625 72.683594 85.933594 73.234375 85.933594 C 73.449219 85.933594 73.558594 85.832031 73.707031 85.511719 C 73.816406 85.277344 73.996094 84.960938 74.113281 84.808594 C 74.316406 84.542969 74.324219 84.148438 74.304688 74.621094 C 74.28125 63.609375 74.285156 63.679688 73.75 64.027344 M 91.09375 64.03125 L 90.84375 64.128906 L 90.839844 74.277344 C 90.832031 85.582031 90.769531 84.582031 91.539062 84.96875 C 91.679688 85.035156 91.796875 85.144531 91.800781 85.203125 C 91.878906 86.109375 91.488281 86.070312 100.113281 86.054688 C 107.8125 86.035156 108.601562 86.007812 108.601562 85.746094 C 108.601562 85.574219 108.921875 85.019531 109.09375 84.902344 C 109.148438 84.859375 109.164062 84.746094 109.125 84.648438 C 109.0625 84.484375 108.269531 84.464844 100.847656 84.464844 C 94.355469 84.464844 92.636719 84.4375 92.632812 84.324219 C 92.632812 84.222656 92.605469 84.226562 92.535156 84.335938 C 92.453125 84.46875 92.429688 84.46875 92.378906 84.335938 C 92.335938 84.226562 92.3125 84.226562 92.308594 84.324219 C 92.300781 84.414062 92.121094 84.464844 91.808594 84.464844 L 91.316406 84.464844 L 91.238281 83.496094 C 91.089844 81.625 91.1875 64.515625 91.351562 64.199219 C 91.507812 63.894531 91.480469 63.875 91.09375 64.03125 M 92.492188 65.113281 C 92.453125 65.152344 92.472656 65.285156 92.539062 65.410156 C 92.601562 65.53125 92.625 65.804688 92.585938 66.015625 C 92.539062 66.253906 92.558594 66.398438 92.632812 66.398438 C 92.699219 66.398438 92.75 66.117188 92.75 65.722656 C 92.75 65.097656 92.675781 64.929688 92.492188 65.113281 M 72.421875 65.488281 C 72.410156 65.667969 72.453125 65.855469 72.523438 65.898438 C 72.609375 65.949219 72.625 65.898438 72.574219 65.734375 C 72.53125 65.597656 72.546875 65.496094 72.613281 65.496094 C 72.679688 65.496094 72.703125 65.417969 72.664062 65.324219 C 72.5625 65.054688 72.449219 65.128906 72.421875 65.488281 M 72.4375 75.207031 C 72.429688 79.957031 72.460938 83.972656 72.503906 84.128906 L 72.582031 84.410156 L 72.644531 84.101562 C 72.675781 83.933594 72.660156 83.820312 72.609375 83.855469 C 72.558594 83.886719 72.5 80.011719 72.484375 75.242188 L 72.453125 66.566406 L 72.4375 75.207031 M 127.347656 84.703125 C 127.128906 84.941406 127.089844 85.207031 127.261719 85.3125 C 127.324219 85.351562 127.375 85.476562 127.375 85.59375 C 127.375 85.710938 127.421875 85.835938 127.480469 85.875 C 127.585938 85.9375 174.707031 85.972656 174.761719 85.910156 C 174.777344 85.890625 174.738281 85.558594 174.675781 85.171875 L 174.5625 84.464844 L 151.050781 84.476562 C 128.035156 84.484375 127.539062 84.488281 127.347656 84.703125 M 73.609375 106.351562 C 73.5 106.371094 73.410156 106.460938 73.410156 106.546875 C 73.410156 106.628906 73.324219 106.757812 73.214844 106.828125 C 73.054688 106.929688 73.054688 106.945312 73.199219 106.898438 C 73.335938 106.855469 73.382812 106.914062 73.382812 107.117188 C 73.382812 107.265625 73.335938 107.390625 73.277344 107.390625 C 73.222656 107.390625 73.203125 107.433594 73.238281 107.492188 C 73.273438 107.546875 73.414062 107.570312 73.550781 107.539062 C 73.761719 107.492188 73.777344 107.503906 73.636719 107.617188 C 73.496094 107.726562 73.507812 107.734375 73.691406 107.664062 C 73.816406 107.617188 74.03125 107.574219 74.171875 107.570312 C 74.390625 107.558594 74.402344 107.539062 74.253906 107.429688 C 74.097656 107.316406 74.097656 107.296875 74.253906 107.238281 C 74.347656 107.199219 74.425781 107.066406 74.425781 106.941406 C 74.425781 106.816406 74.480469 106.722656 74.550781 106.738281 C 74.621094 106.753906 74.699219 106.691406 74.726562 106.597656 C 74.773438 106.449219 74.765625 106.449219 74.660156 106.597656 C 74.554688 106.746094 74.492188 106.6875 74.519531 106.46875 C 74.53125 106.382812 73.882812 106.296875 73.609375 106.351562 M 193.339844 106.582031 C 192.90625 106.84375 192.871094 107.019531 193.265625 106.960938 C 193.445312 106.933594 193.566406 106.871094 193.535156 106.824219 C 193.503906 106.773438 193.554688 106.707031 193.648438 106.671875 C 193.820312 106.605469 193.886719 106.363281 193.734375 106.382812 C 193.6875 106.390625 193.507812 106.476562 193.339844 106.582031 M 194.007812 106.558594 C 194.046875 106.65625 194.007812 106.707031 193.914062 106.6875 C 193.828125 106.671875 193.773438 106.714844 193.785156 106.789062 C 193.800781 106.863281 193.707031 106.957031 193.574219 107 C 193.386719 107.058594 193.371094 107.097656 193.492188 107.171875 C 193.742188 107.332031 193.898438 107.292969 193.960938 107.050781 C 193.992188 106.925781 194.105469 106.824219 194.207031 106.824219 C 194.453125 106.824219 194.386719 106.460938 194.132812 106.421875 C 194.007812 106.40625 193.964844 106.449219 194.007812 106.558594 M 194.078125 107.128906 C 194.078125 107.300781 194.285156 107.269531 194.347656 107.089844 C 194.367188 107.027344 194.316406 106.976562 194.230469 106.976562 C 194.148438 106.976562 194.078125 107.042969 194.078125 107.128906 "/>
</g>
</svg>
